<svg id="visual" viewBox="0 0 900 600" width="900" height="600" xmlns="http://www.w3.org/2000/svg" xmlns:xlink="http://www.w3.org/1999/xlink" version="1.1"><rect x="0" y="0" width="900" height="600" fill="#EDEDED"></rect><defs><linearGradient id="grad1_0" x1="33.3%" y1="100%" x2="100%" y2="0%"><stop offset="20%" stop-color="#ededed" stop-opacity="1"></stop><stop offset="80%" stop-color="#ededed" stop-opacity="1"></stop></linearGradient></defs><defs><linearGradient id="grad2_0" x1="0%" y1="100%" x2="66.7%" y2="0%"><stop offset="20%" stop-color="#ededed" stop-opacity="1"></stop><stop offset="80%" stop-color="#ededed" stop-opacity="1"></stop></linearGradient></defs><g transform="translate(900, 600)"><path d="M-270.4 0C-240.7 -24.5 -211.1 -49 -202.3 -83.8C-193.6 -118.6 -205.7 -163.6 -191.2 -191.2C-176.7 -218.8 -135.4 -229 -99.1 -239.3C-62.8 -249.6 -31.4 -260 0 -270.4L0 0Z" fill="#DA0037"></path></g><g transform="translate(0, 0)"><path d="M270.4 0C266.2 34.8 261.9 69.5 249.8 103.5C237.8 137.4 217.9 170.5 190.2 190.2C162.6 209.9 127.1 216.1 94.1 227.3C61.1 238.4 30.6 254.4 0 270.4L0 0Z" fill="#DA0037"></path></g></svg>